# xmcd CD database file
#
# Track frame offsets:
#	150
#	55644
#	100800
#	158181
#	217435
#
# Disc length: 3642 seconds
#
# Revision: 0
# Processed by: cddbd v1.5.2PL0 Copyright (c) Steve Scherf et al.
# Submitted via: CDex 1.70beta2
#
DISCID=420e3805
DTITLE=Vinito - Das heilsame Meer
DYEAR=2007
DGENRE=New Age
TTITLE0=Loslassen und Entspannen
TTITLE1=Entspanntes Wohlfühlen
TTITLE2=Balsam für die Seele
TTITLE3=Die Seele baumeln lassen
TTITLE4=Glückliche Zufriedenheit
EXTD=YEAR: 2007
EXTT0=
EXTT1=
EXTT2=
EXTT3=
EXTT4=
PLAYORDER=
